<svg xmlns="http://www.w3.org/2000/svg" xmlns:xlink="http://www.w3.org/1999/xlink" viewBox="0,0,256,256" width="30px" height="30px" fill-rule="nonzero"><g fill="#ffffff" fill-rule="nonzero" stroke="none" stroke-width="1" stroke-linecap="butt" stroke-linejoin="miter" stroke-miterlimit="10" stroke-dasharray="" stroke-dashoffset="0" font-family="none" font-weight="none" font-size="none" text-anchor="none" style="mix-blend-mode: normal"><g transform="scale(8.53333,8.53333)"><path d="M7.41406,3l1.77539,6.41211v3.07617h1.53711v-3.07617l1.79883,-6.41211h-1.54883l-0.64453,2.91797c-0.181,0.852 -0.29661,1.45736 -0.34961,1.81836h-0.04687c-0.075,-0.505 -0.19161,-1.11508 -0.34961,-1.83008l-0.62109,-2.90625zM14.31836,5.41992c-0.521,0 -0.94172,0.10255 -1.26172,0.31055c-0.321,0.207 -0.55603,0.53823 -0.70703,0.99023c-0.15,0.453 -0.22656,1.05088 -0.22656,1.79688v1.00586c0,0.738 0.06722,1.33039 0.19922,1.77539c0.132,0.445 0.35301,0.77337 0.66601,0.98438c0.313,0.211 0.74492,0.31736 1.29492,0.31836c0.535,0 0.96144,-0.1045 1.27344,-0.3125c0.312,-0.208 0.53873,-0.53342 0.67773,-0.98242c0.139,-0.449 0.20898,-1.04225 0.20898,-1.78125v-1.00781c0,-0.746 -0.07184,-1.34202 -0.21484,-1.79102c-0.143,-0.448 -0.36773,-0.77923 -0.67773,-0.99023c-0.309,-0.211 -0.72042,-0.31641 -1.23242,-0.31641zM17.25195,5.55664v5.17773c0,0.641 0.11013,1.11306 0.32813,1.41406c0.219,0.301 0.55758,0.45117 1.01758,0.45117c0.663,0 1.16119,-0.31994 1.49219,-0.96094h0.0332l0.13672,0.84766h1.2207v-6.92969h-1.55859v5.50391c-0.06,0.129 -0.15234,0.23536 -0.27734,0.31836c-0.125,0.084 -0.25463,0.125 -0.39062,0.125c-0.159,0 -0.27184,-0.06722 -0.33984,-0.19922c-0.068,-0.132 -0.10156,-0.35016 -0.10156,-0.66016v-5.08789zM14.2832,6.49414c0.218,0 0.37298,0.1157 0.45899,0.3457c0.087,0.229 0.12891,0.59184 0.12891,1.08984v2.16016c0,0.513 -0.04291,0.88142 -0.12891,1.10742c-0.086,0.226 -0.24003,0.33884 -0.45703,0.33984c-0.218,0 -0.37012,-0.11384 -0.45312,-0.33984c-0.084,-0.226 -0.125,-0.59542 -0.125,-1.10742v-2.16016c0,-0.497 0.04486,-0.85984 0.13086,-1.08984c0.086,-0.229 0.23431,-0.3457 0.44531,-0.3457zM6.5,13.90039c-1.381,0 -2.5,1.119 -2.5,2.5v8c0,1.381 1.119,2.5 2.5,2.5h17c1.381,0 2.5,-1.119 2.5,-2.5v-8c0,-1.381 -1.119,-2.5 -2.5,-2.5zM15.05859,16.19922h1.26953v3.08398h0.00977c0.114,-0.223 0.27633,-0.40206 0.48633,-0.53906c0.21,-0.137 0.43769,-0.20508 0.67969,-0.20508c0.312,0 0.55542,0.08305 0.73242,0.24805c0.177,0.165 0.30772,0.43373 0.38672,0.80273c0.079,0.37 0.11914,0.88211 0.11914,1.53711v0.92383c0,0.872 -0.10445,1.51283 -0.31445,1.92383c-0.21,0.411 -0.53937,0.61719 -0.98437,0.61719c-0.248,0 -0.47373,-0.05787 -0.67773,-0.17187c-0.204,-0.114 -0.35503,-0.27075 -0.45703,-0.46875h-0.0293l-0.13281,0.55273h-1.08789zM7.18359,16.49609h3.9043v1.06055h-1.30859v6.94727h-1.28906v-6.94727h-1.30664zM21.11719,18.54297c0.451,0 0.79902,0.08109 1.04102,0.24609c0.241,0.166 0.41272,0.42444 0.51172,0.77344c0.098,0.35 0.14648,0.83417 0.14648,1.45117v1.00391h-2.20312v0.29688c0,0.376 0.0102,0.65675 0.0332,0.84375c0.023,0.187 0.06867,0.32516 0.13867,0.41016c0.07,0.086 0.17822,0.12891 0.32422,0.12891c0.197,0 0.33225,-0.07652 0.40625,-0.22852c0.073,-0.152 0.11314,-0.40767 0.11914,-0.76367l1.13477,0.06641c0.006,0.05 0.00977,0.12194 0.00977,0.21094c0,0.541 -0.14736,0.94494 -0.44336,1.21094c-0.296,0.268 -0.71486,0.40234 -1.25586,0.40234c-0.649,0 -1.10323,-0.20433 -1.36523,-0.61133c-0.262,-0.407 -0.39062,-1.03762 -0.39062,-1.89062v-1.02148c0,-0.878 0.13625,-1.51883 0.40625,-1.92383c0.27,-0.405 0.73172,-0.60547 1.38672,-0.60547zM12.94922,18.65039h1.31836v5.85156h-0.00391v0.00195h-1.03125l-0.11328,-0.7168h-0.0293c-0.28,0.542 -0.69977,0.8125 -1.25977,0.8125c-0.389,0 -0.67437,-0.12586 -0.85937,-0.38086c-0.185,-0.254 -0.27734,-0.65336 -0.27734,-1.19336v-4.37305h1.32031v4.29688c0,0.26 0.02894,0.44859 0.08594,0.55859c0.058,0.112 0.15211,0.16602 0.28711,0.16602c0.114,0 0.22313,-0.03447 0.32813,-0.10547c0.106,-0.07 0.18238,-0.15958 0.23438,-0.26758zM21.08984,19.43164c-0.14,0 -0.2455,0.04105 -0.3125,0.12305c-0.067,0.083 -0.11181,0.21825 -0.13281,0.40625c-0.023,0.187 -0.0332,0.47252 -0.0332,0.85352v0.41992h0.96289v-0.41992c0,-0.376 -0.01211,-0.65952 -0.03711,-0.85352c-0.025,-0.195 -0.06972,-0.33016 -0.13672,-0.41016c-0.067,-0.079 -0.16955,-0.11914 -0.31055,-0.11914zM16.91016,19.47461c-0.127,0 -0.24552,0.05034 -0.35352,0.15234c-0.108,0.102 -0.18452,0.23262 -0.22852,0.39063v3.32227c0.058,0.102 0.13261,0.17751 0.22461,0.22852c0.092,0.05 0.19178,0.07813 0.30078,0.07813c0.14,0 0.25098,-0.05034 0.33398,-0.15234c0.083,-0.102 0.14178,-0.27362 0.17578,-0.51562c0.035,-0.241 0.05273,-0.57595 0.05273,-1.00195v-0.75391c0,-0.458 -0.01397,-0.81155 -0.04297,-1.06055c-0.028,-0.248 -0.08034,-0.4253 -0.15234,-0.5293c-0.073,-0.104 -0.17555,-0.1582 -0.31055,-0.1582z"></path></g></g></svg>